<?xml version="1.0" encoding="utf-8"?>
<svg version="1.1" id="Layer_1"
xmlns="http://www.w3.org/2000/svg"
xmlns:xlink="http://www.w3.org/1999/xlink"
width="550px" height="400px"
xml:space="preserve">
<g id="PathID_3" transform="matrix(2.05263, 0, 0, 2.05263, 129.65, 42.05)" opacity="1">
<path style="fill:#FFFFFF;fill-opacity:1" d="M112.15 40.15Q116.9 44.9 116.9 51.95Q116.9 59.05 112.15 63.8Q106.85 69.1 100.35 69.1Q93.3 69.1 88.55 63.8Q83.25 59.05 83.25 51.95Q83.25 44.9 88.55 40.15Q93.3 35.45 100.35 35.45Q106.85 35.45 112.15 40.15M118.1 85.65L118.1 89.15Q118.1 103.35 105.7 113.4L105.7 113.95Q93.3 124 74.95 124Q57.85 124 44.25 113.4Q31.85 103.35 31.85 89.15L31.85 85.65L33.65 82.1L37.2 81.5L38.35 81.5L41.3 82.1L43.7 85.65Q44.25 93.9 52.55 100.4Q62 108.05 74.95 108.05Q88.55 108.05 96.8 100.4Q105.7 93.9 106.25 85.65L108.65 82.1L111 81.5L112.75 81.5L116.3 82.1L118.1 85.65M118.65 30.7Q100.95 12.4 74.95 12.4Q49 12.4 30.7 30.7Q12.4 49 12.4 74.4Q12.4 100.4 30.7 118.7Q49 137.6 74.95 137.6Q100.95 137.6 118.65 118.7Q137 100.4 137 74.4Q137 49 118.65 30.7M149.4 75Q149.4 105.7 127.55 127.55Q105.7 150 74.95 150Q43.7 150 21.25 127.55Q0 105.7 0 75Q0 44.3 21.25 21.85Q43.7 0 74.95 0Q105.7 0 127.55 21.85Q149.4 44.3 149.4 75M52.55 35.45Q59.05 35.45 64.35 40.15Q69.05 44.9 69.05 51.95Q69.05 59.05 64.35 63.8Q59.05 69.1 52.55 69.1Q45.45 69.1 40.7 63.8Q35.4 59.05 35.4 51.95Q35.4 44.9 40.7 40.15Q45.45 35.45 52.55 35.45" />
</g>
<g id="PathID_4" transform="matrix(2.05263, 0, 0, 2.05263, 129.65, 42.05)" opacity="1">
</g>
</svg>
